<mxfile host="Electron" modified="2023-11-23T14:37:40.245Z" agent="Mozilla/5.0 (Windows NT 10.0; Win64; x64) AppleWebKit/537.36 (KHTML, like Gecko) draw.io/22.0.3 Chrome/114.0.5735.289 Electron/25.8.4 Safari/537.36" etag="bS55O7I8kkMhS8mpr7QW" version="22.0.3" type="device">
  <diagram id="lMeLzDrUZEbzFNiq35lA" name="Side-1">
    <mxGraphModel dx="1418" dy="820" grid="1" gridSize="10" guides="1" tooltips="1" connect="1" arrows="1" fold="1" page="1" pageScale="1" pageWidth="827" pageHeight="1169" math="0" shadow="0">
      <root>
        <mxCell id="0" />
        <mxCell id="1" parent="0" />
        <mxCell id="EmqrsctSdbpgy03GEWfF-26" style="edgeStyle=orthogonalEdgeStyle;rounded=0;orthogonalLoop=1;jettySize=auto;html=1;entryX=0.5;entryY=0;entryDx=0;entryDy=0;" parent="1" source="EmqrsctSdbpgy03GEWfF-2" target="EmqrsctSdbpgy03GEWfF-25" edge="1">
          <mxGeometry relative="1" as="geometry" />
        </mxCell>
        <mxCell id="EmqrsctSdbpgy03GEWfF-2" value="Start" style="rounded=1;whiteSpace=wrap;html=1;fontSize=12;glass=0;strokeWidth=1;shadow=0;arcSize=50;" parent="1" vertex="1">
          <mxGeometry x="360" y="60" width="120" height="40" as="geometry" />
        </mxCell>
        <mxCell id="EmqrsctSdbpgy03GEWfF-31" style="edgeStyle=orthogonalEdgeStyle;rounded=0;orthogonalLoop=1;jettySize=auto;html=1;entryX=0.5;entryY=0;entryDx=0;entryDy=0;" parent="1" source="EmqrsctSdbpgy03GEWfF-25" target="EmqrsctSdbpgy03GEWfF-30" edge="1">
          <mxGeometry relative="1" as="geometry" />
        </mxCell>
        <mxCell id="EmqrsctSdbpgy03GEWfF-25" value="Measure dissolved oxygen (DO)" style="whiteSpace=wrap;html=1;rounded=1;glass=0;strokeWidth=1;shadow=0;arcSize=0;" parent="1" vertex="1">
          <mxGeometry x="360" y="180" width="120" height="50" as="geometry" />
        </mxCell>
        <mxCell id="EmqrsctSdbpgy03GEWfF-32" style="edgeStyle=orthogonalEdgeStyle;rounded=0;orthogonalLoop=1;jettySize=auto;html=1;exitX=0.5;exitY=1;exitDx=0;exitDy=0;entryX=0.5;entryY=0;entryDx=0;entryDy=0;" parent="1" source="EmqrsctSdbpgy03GEWfF-30" target="EmqrsctSdbpgy03GEWfF-43" edge="1">
          <mxGeometry relative="1" as="geometry">
            <mxPoint x="420" y="470" as="targetPoint" />
          </mxGeometry>
        </mxCell>
        <mxCell id="EmqrsctSdbpgy03GEWfF-33" value="true" style="edgeLabel;html=1;align=center;verticalAlign=middle;resizable=0;points=[];" parent="EmqrsctSdbpgy03GEWfF-32" vertex="1" connectable="0">
          <mxGeometry x="-0.8005" relative="1" as="geometry">
            <mxPoint y="11" as="offset" />
          </mxGeometry>
        </mxCell>
        <mxCell id="EmqrsctSdbpgy03GEWfF-39" value="True" style="edgeLabel;html=1;align=center;verticalAlign=middle;resizable=0;points=[];" parent="EmqrsctSdbpgy03GEWfF-32" vertex="1" connectable="0">
          <mxGeometry x="-0.5111" y="2" relative="1" as="geometry">
            <mxPoint as="offset" />
          </mxGeometry>
        </mxCell>
        <mxCell id="EmqrsctSdbpgy03GEWfF-34" style="edgeStyle=orthogonalEdgeStyle;rounded=0;orthogonalLoop=1;jettySize=auto;html=1;entryX=0.5;entryY=0;entryDx=0;entryDy=0;" parent="1" source="EmqrsctSdbpgy03GEWfF-30" target="EmqrsctSdbpgy03GEWfF-36" edge="1">
          <mxGeometry relative="1" as="geometry">
            <mxPoint x="190" y="430" as="targetPoint" />
          </mxGeometry>
        </mxCell>
        <mxCell id="EmqrsctSdbpgy03GEWfF-35" value="False" style="edgeLabel;html=1;align=center;verticalAlign=middle;resizable=0;points=[];" parent="EmqrsctSdbpgy03GEWfF-34" vertex="1" connectable="0">
          <mxGeometry x="-0.802" y="3" relative="1" as="geometry">
            <mxPoint x="3" y="-3" as="offset" />
          </mxGeometry>
        </mxCell>
        <mxCell id="EmqrsctSdbpgy03GEWfF-30" value="&amp;gt; 4mg/L" style="rhombus;whiteSpace=wrap;html=1;" parent="1" vertex="1">
          <mxGeometry x="380" y="300" width="80" height="80" as="geometry" />
        </mxCell>
        <mxCell id="EmqrsctSdbpgy03GEWfF-38" style="edgeStyle=orthogonalEdgeStyle;rounded=0;orthogonalLoop=1;jettySize=auto;html=1;exitX=0.5;exitY=1;exitDx=0;exitDy=0;entryX=0.5;entryY=0;entryDx=0;entryDy=0;" parent="1" source="EmqrsctSdbpgy03GEWfF-36" target="EmqrsctSdbpgy03GEWfF-45" edge="1">
          <mxGeometry relative="1" as="geometry">
            <mxPoint x="330" y="645" as="targetPoint" />
            <mxPoint x="190" y="555" as="sourcePoint" />
            <Array as="points">
              <mxPoint x="260" y="610" />
              <mxPoint x="340" y="610" />
            </Array>
          </mxGeometry>
        </mxCell>
        <mxCell id="EmqrsctSdbpgy03GEWfF-36" value="messageToSend = &quot;start&quot;" style="rounded=0;whiteSpace=wrap;html=1;" parent="1" vertex="1">
          <mxGeometry x="200" y="480" width="120" height="60" as="geometry" />
        </mxCell>
        <mxCell id="EmqrsctSdbpgy03GEWfF-41" value="End" style="rounded=1;whiteSpace=wrap;html=1;fontSize=12;glass=0;strokeWidth=1;shadow=0;arcSize=50;" parent="1" vertex="1">
          <mxGeometry x="280" y="750" width="120" height="40" as="geometry" />
        </mxCell>
        <mxCell id="EmqrsctSdbpgy03GEWfF-44" style="edgeStyle=orthogonalEdgeStyle;rounded=0;orthogonalLoop=1;jettySize=auto;html=1;entryX=0.5;entryY=0;entryDx=0;entryDy=0;" parent="1" source="EmqrsctSdbpgy03GEWfF-43" target="EmqrsctSdbpgy03GEWfF-45" edge="1">
          <mxGeometry relative="1" as="geometry">
            <Array as="points">
              <mxPoint x="420" y="610" />
              <mxPoint x="340" y="610" />
            </Array>
          </mxGeometry>
        </mxCell>
        <mxCell id="EmqrsctSdbpgy03GEWfF-43" value="messageToSend = &quot;stop&quot;" style="rounded=0;whiteSpace=wrap;html=1;" parent="1" vertex="1">
          <mxGeometry x="360" y="480" width="120" height="60" as="geometry" />
        </mxCell>
        <mxCell id="EmqrsctSdbpgy03GEWfF-46" style="edgeStyle=orthogonalEdgeStyle;rounded=0;orthogonalLoop=1;jettySize=auto;html=1;" parent="1" source="EmqrsctSdbpgy03GEWfF-45" target="EmqrsctSdbpgy03GEWfF-41" edge="1">
          <mxGeometry relative="1" as="geometry" />
        </mxCell>
        <mxCell id="EmqrsctSdbpgy03GEWfF-45" value="send message on I2C" style="rounded=0;whiteSpace=wrap;html=1;" parent="1" vertex="1">
          <mxGeometry x="280" y="650" width="120" height="60" as="geometry" />
        </mxCell>
      </root>
    </mxGraphModel>
  </diagram>
</mxfile>
